/* XPM */
static char * icon_xpm[] = {
"32 32 11 1",
" 	c None",
".	c #000000",
"+	c #EFA4D5",
"@	c #D2FEFF",
"#	c #FF0000",
"$	c #723940",
"%	c #D5FFD2",
"&	c #01C101",
"*	c #0000FF",
"=	c #394172",
"-	c #3F7239",
"                                ",
"                                ",
"  .................             ",
"  ..+++++++++++++..             ",
"  .+.+++++++++++.+.             ",
"  .++.+++++++++.++.             ",
"  .+++.+++++++..................",
"  .++++.+++++.+..@@@@@@@@@@@@@..",
"  .+++.+.+++.+..@.@@@@@@@@@@@.@.",
"  .++.+++...+++.@@.@@@@@@@@@.@@.",
"  .+.++++++++++.@@@.@@@@@@@.@@@.",
"  ..+++++++++++.@@@@.@@@@@.@@@@.",
"  ..............@@@.@.@@@.@.@@@.",
"       +#$     .@@.@@@...@@@.@@.",
"       +#$     .@.@@@@@@@@@@@.@.",
"       +#$     ..@@@@@@@@@@@@@..",
"       +#$@@@@@.................",
"      %&&******=                ",
"     %&&-*==                    ",
"    %&&-                        ",
"   %&&-                         ",
".................               ",
"..%%%%%%%%%%%%%..               ",
".%.%%%%%%%%%%%.%.               ",
".%%.%%%%%%%%%.%%.               ",
".%%%.%%%%%%%.%%%.               ",
".%%%%.%%%%%.%%%%.               ",
".%%%.%.%%%.%.%%%.               ",
".%%.%%%...%%%.%%.               ",
".%.%%%%%%%%%%%.%.               ",
"..%%%%%%%%%%%%%..               ",
".................               "};
