/* XPM */
static char * invsys16_xpm[] = {
"16 16 63 1",
" 	c #FFFFFF",
".	c #CFCFCF",
"+	c #686868",
"@	c #262626",
"#	c #060606",
"$	c #CECECE",
"%	c #F6F6F6",
"&	c #666666",
"*	c #121212",
"=	c #777777",
"-	c #C4C4C4",
";	c #B4B4B4",
">	c #B3B3B3",
",	c #C5C5C5",
"'	c #787878",
")	c #656565",
"!	c #3F3F3F",
"~	c #494949",
"{	c #EAEAEA",
"]	c #F2F2F2",
"^	c #050505",
"/	c #F1F1F1",
"(	c #4A4A4A",
"_	c #3D3D3D",
":	c #FAFAFA",
"<	c #FEFEFE",
"[	c #5E5E5E",
"}	c #5C5C5C",
"|	c #FDFDFD",
"1	c #FBFBFB",
"2	c #646464",
"3	c #020202",
"4	c #6B6B6B",
"5	c #808080",
"6	c #848484",
"7	c #E8E8E8",
"8	c #EBEBEB",
"9	c #CDCDCD",
"0	c #424242",
"a	c #737373",
"b	c #323232",
"c	c #858585",
"d	c #797979",
"e	c #707070",
"f	c #818181",
"g	c #C6C6C6",
"h	c #242424",
"i	c #ECECEC",
"j	c #040404",
"k	c #C7C7C7",
"l	c #7A7A7A",
"m	c #363636",
"n	c #3E3E3E",
"o	c #131313",
"p	c #CCCCCC",
"q	c #0A0A0A",
"r	c #747474",
"s	c #757575",
"t	c #0B0B0B",
"u	c #626262",
"v	c #4C4C4C",
"w	c #3C3C3C",
"x	c #F5F5F5",
"    .+@##@+$    ",
"  %&*=-;>,'*)%  ",
" %!~{ ]#^/ {(_% ",
" &~:  <[}|  1(2 ",
".34555567    8*9",
"+0aaaaabc     d&",
"@-     ef     gh",
"#{     ef     ij",
"#{     ef     ij",
"@,     ef     kh",
"+'     ef     l&",
"$*lllllmnlllllop",
" )qrddddddddstu ",
" %_(8      ivwx ",
"  %2odgiikloux  ",
"    9&hjjh&p    "};
